<svg width="12" height="12" viewBox="0 0 12 12" fill="none" xmlns="http://www.w3.org/2000/svg">
    <rect width="12" height="12" fill="white" style="mix-blend-mode:multiply" />
    <path
        d="M11.6023 5.8725C11.1613 4.73162 10.3956 3.74498 9.39989 3.03453C8.4042 2.32408 7.22215 1.92096 5.99984 1.875C4.77753 1.92096 3.59549 2.32408 2.59979 3.03453C1.6041 3.74498 0.838401 4.73162 0.39734 5.8725C0.367553 5.95489 0.367553 6.04511 0.39734 6.1275C0.838401 7.26838 1.6041 8.25502 2.59979 8.96547C3.59549 9.67592 4.77753 10.079 5.99984 10.125C7.22215 10.079 8.4042 9.67592 9.39989 8.96547C10.3956 8.25502 11.1613 7.26838 11.6023 6.1275C11.6321 6.04511 11.6321 5.95489 11.6023 5.8725ZM5.99984 9.375C5.02437 9.375 4.02181 9.01999 3.16372 8.43368C1.46607 7.27371 1.46607 4.72629 3.16372 3.56632C4.02181 2.98001 5.02437 2.625 5.99984 2.625C6.97531 2.625 7.97788 2.98001 8.83597 3.56632C10.5336 4.72629 10.5336 7.27371 8.83597 8.43368C7.97788 9.01999 6.97531 9.375 5.99984 9.375Z"
        fill="#161616" />
    <path
        d="M5.99984 3.75C5.55483 3.75 5.11982 3.88196 4.74981 4.12919C4.3798 4.37643 4.09141 4.72783 3.92111 5.13896C3.75081 5.5501 3.70626 6.0025 3.79307 6.43895C3.87989 6.87541 4.09418 7.27632 4.40885 7.59099C4.72352 7.90566 5.12443 8.11995 5.56089 8.20677C5.99734 8.29358 6.44975 8.24903 6.86088 8.07873C7.27201 7.90843 7.62341 7.62004 7.87065 7.25003C8.11788 6.88002 8.24984 6.44501 8.24984 6C8.24984 5.40326 8.01279 4.83097 7.59083 4.40901C7.16887 3.98705 6.59658 3.75 5.99984 3.75ZM5.99984 7.5C5.70317 7.5 5.41316 7.41203 5.16649 7.2472C4.91981 7.08238 4.72755 6.84811 4.61402 6.57403C4.50049 6.29994 4.47079 5.99834 4.52866 5.70736C4.58654 5.41639 4.7294 5.14912 4.93918 4.93934C5.14896 4.72956 5.41623 4.5867 5.70721 4.52882C5.99818 4.47094 6.29978 4.50065 6.57387 4.61418C6.84795 4.72771 7.08222 4.91997 7.24705 5.16664C7.41187 5.41332 7.49984 5.70333 7.49984 6C7.49984 6.39782 7.34181 6.77936 7.0605 7.06066C6.7792 7.34196 6.39767 7.5 5.99984 7.5Z"
        fill="#161616" />
</svg>