<svg width="37" height="34" viewBox="0 0 37 34" fill="none" xmlns="http://www.w3.org/2000/svg">
    <path d="M34.7003 16.9999H17.9003" stroke="white" />
    <path d="M17.6002 16.9999L8.60022 31.3999" stroke="white" />
    <path d="M8.60022 2.59991L17.6002 16.9999" stroke="white" />
    <circle cx="17.6002" cy="17" r="3.1" stroke="white" />
    <circle cx="8.60029" cy="2.59993" r="1.3" stroke="white" />
    <circle cx="8.60029" cy="31.4" r="1.3" stroke="white" />
    <circle cx="17.6003" cy="16.9999" r="6.7" stroke="white" />
    <mask id="path-8-inside-1_5033_7131">
        <path
            d="M17.7739 7.39996C24.9778 7.39996 31.2823 11.2477 34.7466 16.9996C31.2824 22.7518 24.9781 26.6002 17.7739 26.6002C10.5696 26.6002 4.26442 22.7521 0.800293 16.9996C4.26452 11.2475 10.5699 7.39996 17.7739 7.39996Z" />
    </mask>
    <path
        d="M17.7739 7.39996V6.39996V7.39996ZM34.7466 16.9996L35.6032 17.5155L35.9139 16.9995L35.6032 16.4836L34.7466 16.9996ZM17.7739 26.6002V27.6002V26.6002ZM0.800293 16.9996L-0.0563473 16.4837L-0.367043 16.9995L-0.056369 17.5155L0.800293 16.9996ZM17.7739 7.39996V8.39996C24.6127 8.39996 30.599 12.0514 33.89 17.5155L34.7466 16.9996L35.6032 16.4836C31.9656 10.444 25.3429 6.39996 17.7739 6.39996V7.39996ZM34.7466 16.9996L33.8899 16.4837C30.5991 21.9482 24.6129 25.6002 17.7739 25.6002V26.6002V27.6002C25.3433 27.6002 31.9657 23.5555 35.6032 17.5155L34.7466 16.9996ZM17.7739 26.6002V25.6002C10.9347 25.6002 4.94774 21.9483 1.65695 16.4837L0.800293 16.9996L-0.056369 17.5155C3.58111 23.5558 10.2045 27.6002 17.7739 27.6002V26.6002ZM0.800293 16.9996L1.65693 17.5155C4.94778 12.0513 10.9349 8.39996 17.7739 8.39996V7.39996V6.39996C10.2048 6.39996 3.58125 10.4437 -0.0563473 16.4837L0.800293 16.9996Z"
        fill="white" mask="url(#path-8-inside-1_5033_7131)" />
    <circle cx="34.4002" cy="17" r="1.3" stroke="white" />
</svg>