<svg width="37" height="37" viewBox="0 0 37 37" fill="none" xmlns="http://www.w3.org/2000/svg">
<circle cx="4.39976" cy="29.6001" r="1.9" stroke="white"/>
<path d="M19.9998 0.700012C25.8293 0.700012 30.5906 5.27705 30.8855 11.033L30.9089 11.4842L31.3601 11.5067C34.1109 11.642 36.2996 13.9154 36.2996 16.7C36.2996 19.5718 33.972 21.9 31.1003 21.9002H8.29956C4.10238 21.9 0.699951 18.4969 0.699951 14.2996C0.700162 10.1026 4.10251 6.70022 8.29956 6.70001C8.80601 6.70001 9.30081 6.75024 9.77905 6.84454L10.1472 6.91681L10.3201 6.5838C12.136 3.08703 15.7895 0.700086 19.9998 0.700012Z" stroke="white"/>
<circle cx="33.1998" cy="29.6001" r="1.9" stroke="white"/>
<circle cx="18.7998" cy="33.8" r="2.5" stroke="white"/>
<path d="M18.7998 22.1V31.1" stroke="white"/>
<path d="M13.9997 21.8V27.2C13.9997 28.5255 12.9252 29.6 11.5997 29.6H6.19971" stroke="white"/>
<path d="M23.5998 21.8V27.2001C23.5998 28.5255 24.6743 29.6 25.9998 29.6H31.3998" stroke="white"/>
</svg>
