<svg width="38" height="37" viewBox="0 0 38 37" fill="none" xmlns="http://www.w3.org/2000/svg">
    <circle cx="33.5998" cy="27" r="3.7" stroke="white" />
    <path d="M11.7708 5.40002C6.56095 8.09323 2.99976 13.5307 2.99976 19.8C2.99976 20.2036 3.01452 20.6038 3.04353 21"
        stroke="white" />
    <path
        d="M10.4998 33.4681C13.0129 35.0712 15.9979 36.0001 19.1998 36.0001C22.4016 36.0001 25.3866 35.0712 27.8998 33.4681"
        stroke="white" />
    <path
        d="M26.6997 5.43689C31.8709 8.14267 35.3997 13.5592 35.3997 19.7999C35.3997 20.2036 35.3849 20.6037 35.3559 20.9999"
        stroke="white" />
    <path d="M5.39971 23.3253L1.19971 30.6H9.59972L5.39971 23.3253Z" stroke="white" />
    <rect x="15.4998" y="0.5" width="7.4" height="7.4" stroke="white" />
    <path
        d="M25.7997 27V24.9C25.7997 22.2371 24.147 19.9615 21.8118 19.0395C22.7745 18.3293 23.3997 17.1881 23.3997 15.9C23.3997 13.7461 21.6536 12 19.4997 12C17.3458 12 15.5997 13.7461 15.5997 15.9C15.5997 17.1879 16.2245 18.3293 17.187 19.0395C14.8521 19.9616 13.1997 22.2373 13.1997 24.9V27"
        stroke="white" />
</svg>