<svg width="36" height="36" viewBox="0 0 36 36" fill="none" xmlns="http://www.w3.org/2000/svg">
    <rect x="16.6998" y="0.5" width="2.6" height="2.6" stroke="white" />
    <circle cx="33.5999" cy="15" r="1.3" stroke="white" />
    <circle cx="31.1999" cy="23.4" r="1.3" stroke="white" />
    <circle cx="25.7999" cy="30.6" r="1.3" stroke="white" />
    <circle cx="17.9998" cy="34.2" r="1.3" stroke="white" />
    <circle cx="10.1999" cy="30.6" r="1.3" stroke="white" />
    <circle cx="4.79988" cy="23.4" r="1.3" stroke="white" />
    <circle cx="2.39985" cy="15" r="1.3" stroke="white" />
    <path d="M17.9999 3V3C17.9999 9.62742 12.6273 15 5.99985 15H3.59985" stroke="white" />
    <path d="M17.9999 3.59998V11.4C17.9999 18.0274 12.6273 23.4 5.99988 23.4V23.4" stroke="white" />
    <path d="M17.9999 3.59998V24C17.9999 27.6451 15.045 30.6 11.3999 30.6V30.6" stroke="white" />
    <path d="M17.9999 3V3C17.9999 9.62742 23.3725 15 29.9999 15H32.3999" stroke="white" />
    <path d="M17.9999 3.59998V11.4C17.9999 18.0274 23.3725 23.4 29.9999 23.4V23.4" stroke="white" />
    <path d="M17.9999 3.59998V24C17.9999 27.6451 20.9548 30.6 24.5999 30.6V30.6" stroke="white" />
    <path d="M17.9999 3.29999V32.7" stroke="white" />
</svg>